#!OML:ASF H:\Terrain\Patient Classification 1\Takeo\Monday\TakeoMonday.ASF
:FULLY-SPECIFIED
:DEGREES
406
root 9.61385 17.4875 -0.0126116 -7.04916 -33.9431 3.13281
lowerback 8.34856 2.66314 -2.68221
upperback 3.47557 3.24262 -2.38337
thorax -1.08595 1.59387 -1.25006
lowerneck -15.8918 1.39776 -3.20534
upperneck -8.88578 2.21537 0.204397
head -0.229005 1.14372 0.691232
rclavicle -1.03567e-013 6.36111e-015
rhumerus -13.0508 23.2911 -69.307
rradius 117.585
rwrist -7.69468
rhand -26.6965 30.0593
rfingers 7.12502
rthumb -0.126925 0.0795525
lclavicle -1.03567e-013 6.36111e-015
lhumerus -33.1434 -16.4773 88.5272
lradius 111.935
lwrist 21.5637
lhand -28.4947 2.96503
lfingers 7.12502
lthumb -1.8637 32.9366
rfemur 2.809 -1.79705 17.4441
rtibia 27.9493
rfoot -21.2065 -16.9295
rtoes -9.59928
lfemur -10.1889 12.543 -19.5685
ltibia 33.4221
lfoot -13.7618 19.0786
ltoes -8.54574
407
root 9.61264 17.4779 -0.0238471 -7.66168 -34.6579 4.07628
lowerback 8.29734 2.53231 -3.28392
upperback 3.44711 3.0255 -2.24947
thorax -1.12479 1.47989 -0.755348
lowerneck -15.9015 1.84541 -2.7508
upperneck -8.55946 2.71167 -0.664372
head -0.116792 1.36256 0.367061
rclavicle -3.06128e-014 1.63003e-014
rhumerus -14.7773 23.4659 -70.241
rradius 118.076
rwrist -7.53771
rhand -26.3327 30.6179
rfingers 7.12502
rthumb 0.224381 0.638251
lclavicle -3.06128e-014 1.63003e-014
lhumerus -33.2048 -15.9048 88.7398
lradius 111.967
lwrist 21.3979
lhand -28.2815 3.23625
lfingers 7.12502
lthumb -1.65777 33.2096
rfemur 2.48568 -1.42892 16.5984
rtibia 28.4979
rfoot -21.274 -16.7523
rtoes -10.2375
lfemur -9.89298 12.9085 -20.3032
ltibia 33.2179
lfoot -13.9064 19.4933
ltoes -8.92173
408
root 9.60995 17.4691 -0.0396843 -7.93252 -35.5575 4.38309
lowerback 8.29037 2.44145 -3.16593
upperback 3.42993 2.91681 -2.1014
thorax -1.13977 1.42609 -0.658381
lowerneck -16.0487 2.21558 -2.25992
upperneck -8.21257 3.1121 -1.36076
head 0.0310309 1.53325 0.0926077
rclavicle -2.77553e-014 6.36111e-015
rhumerus -16.5829 23.5776 -71.2471
rradius 118.44
rwrist -7.49376
rhand -27.0543 30.7608
rfingers 7.12502
rthumb -0.472567 0.781629
lclavicle -2.77553e-014 6.36111e-015
lhumerus -33.1504 -15.7642 88.8066
lradius 111.981
lwrist 21.2933
lhand -28.3378 3.85277
lfingers 7.12502
lthumb -1.71219 33.8257
rfemur 2.06805 -0.895882 16.4315
rtibia 29.1532
rfoot -21.5113 -16.4591
rtoes -10.6993
lfemur -9.62885 13.3254 -20.3533
ltibia 33.0128
lfoot -14.253 19.7454
ltoes -7.14895
409
root 9.60473 17.4653 -0.0554142 -8.15994 -36.2874 4.55064
lowerback 8.32574 2.26081 -2.955
upperback 3.39727 2.69412 -1.94906
thorax -1.18856 1.31657 -0.60032
lowerneck -15.5297 2.56032 -2.23106
upperneck -8.50231 3.53636 -1.46387
head -0.144465 1.74669 0.0636688
rclavicle 4.42544e-014 -2.20651e-014
rhumerus -18.5568 23.7638 -72.4956
rradius 118.802
rwrist -7.1911
rhand -27.3491 30.6508
rfingers 7.12502
rthumb -0.75723 0.67235
lclavicle 4.42544e-014 -2.20651e-014
lhumerus -33.2444 -15.5522 88.9416
lradius 112.064
lwrist 21.3565
lhand -28.3302 3.93205
lfingers 7.12502
lthumb -1.70485 33.905
rfemur 1.73827 -0.462176 16.3976
rtibia 29.7885
rfoot -21.6769 -16.0565
rtoes -10.5027
lfemur -9.3701 13.6222 -20.299
ltibia 32.8562
lfoot -14.4209 20.0312
ltoes -5.52337
410
root 9.59566 17.4639 -0.0721325 -8.38452 -36.8013 4.91116
lowerback 8.22036 2.05257 -3.04197
upperback 3.35303 2.41941 -1.75565
thorax -1.18488 1.1786 -0.323672
lowerneck -14.7771 2.93052 -2.7856
upperneck -8.96388 4.0852 -1.10619
head -0.430481 2.04747 0.267736
rclavicle -5.22928e-014 2.88238e-014
rhumerus -20.4305 23.7679 -73.6027
rradius 119.154
rwrist -7.0614
rhand -27.2389 31.0559
rfingers 7.12502
rthumb -0.650815 1.07711
lclavicle -5.22928e-014 2.88238e-014
lhumerus -33.3547 -15.3072 89.2196
lradius 112.157
lwrist 21.4595
lhand -28.5979 3.88424
lfingers 7.12502
lthumb -1.96337 33.855
rfemur 1.3803 -0.132918 16.1923
rtibia 30.2587
rfoot -21.8183 -15.7813
rtoes -10.6851
lfemur -9.32527 13.8407 -20.5092
ltibia 32.8262
lfoot -14.3446 20.4179
ltoes -5.45486
411
root 9.58421 17.4614 -0.0851445 -8.71261 -37.2827 5.58006
lowerback 7.8789 1.93331 -3.36266
upperback 3.40581 2.25729 -1.64676
thorax -0.955203 1.09196 -0.00452803
lowerneck -14.6744 3.26277 -2.89235
upperneck -8.9154 4.5335 -1.15884
head -0.4369 2.2725 0.283843
rclavicle 4.14342e-014 1.00386e-014
rhumerus -21.9592 23.3998 -74.4419
rradius 119.382
rwrist -7.29049
rhand -26.3909 31.2142
rfingers 7.12502
rthumb 0.168166 1.2345
lclavicle 4.14342e-014 1.00386e-014
lhumerus -33.2602 -15.373 89.4414
lradius 112.215
lwrist 21.314
lhand -29.053 3.78804
lfingers 7.12502
lthumb -2.40288 33.7543
rfemur 0.994575 0.190513 15.6905
rtibia 30.6252
rfoot -21.965 -15.5451
rtoes -10.5782
lfemur -9.40311 14.097 -20.9933
ltibia 32.8647
lfoot -14.3536 20.7363
ltoes -5.15524
412
root 9.57905 17.4582 -0.0904301 -8.90266 -37.8257 5.7216
lowerback 7.72611 1.73993 -3.1265
upperback 3.46552 2.03056 -1.4309
thorax -0.803861 0.977685 0.111671
lowerneck -14.4422 3.55552 -2.7144
upperneck -8.89111 4.87184 -1.60137
head -0.454007 2.43175 0.12628
rclavicle -6.91755e-014 1.62631e-014
rhumerus -23.417 23.2557 -75.3056
rradius 119.581
rwrist -7.49328
rhand -24.7706 30.7015
rfingers 7.12502
rthumb 1.73311 0.728829
lclavicle -6.91755e-014 1.62631e-014
lhumerus -33.2891 -15.2651 89.6548
lradius 112.294
lwrist 21.0227
lhand -28.9425 3.53105
lfingers 7.12502
lthumb -2.29619 33.4984
rfemur 0.84261 0.478316 15.6301
rtibia 30.9633
rfoot -22.1727 -15.2414
rtoes -10.2106
lfemur -9.30464 14.2988 -20.9502
ltibia 32.9719
lfoot -14.5547 21.0496
ltoes -4.82602
413
root 9.58233 17.4456 -0.0956768 -9.10354 -38.439 5.5221
lowerback 8.0139 1.52537 -2.5038
upperback 3.42314 1.78323 -1.13438
thorax -0.992226 0.860291 0.0813125
lowerneck -13.8478 3.8762 -2.67694
upperneck -9.02598 5.25298 -2.05466
head -0.578139 2.62195 -0.0203241
rclavicle -4.56708e-014 -6.65929e-015
rhumerus -25.1583 23.2815 -76.2294
rradius 119.842
rwrist -7.60626
rhand -24.4552 30.4979
rfingers 7.12502
rthumb 2.03771 0.527933
lclavicle -4.56708e-014 -6.65929e-015
lhumerus -33.5531 -14.9846 90.0251
lradius 112.403
lwrist 20.8727
lhand -28.6793 3.83938
lfingers 7.12502
lthumb -2.04198 33.8094
rfemur 0.912349 0.800191 15.8779
rtibia 31.2829
rfoot -22.3273 -14.9216
rtoes -10.1879
lfemur -8.96983 14.5515 -20.5719
ltibia 33.1797
lfoot -14.8605 21.3476
ltoes -5.36138
414
root 9.58418 17.426 -0.105037 -9.46071 -38.9498 5.72677
lowerback 8.26477 1.38831 -2.19922
upperback 3.38519 1.61673 -1.01013
thorax -1.1622 0.78026 0.0468352
lowerneck -13.8209 4.20019 -2.10835
upperneck -8.6404 5.59257 -2.80123
head -0.424088 2.76417 -0.320845
rclavicle -1.34366e-013 1.17283e-014
rhumerus -27.0738 22.9372 -77.2094
rradius 120.191
rwrist -7.48942
rhand -25.7346 31.2366
rfingers 7.12502
rthumb 0.802111 1.25836
lclavicle -1.34366e-013 1.17283e-014
lhumerus -33.7666 -14.9561 90.3361
lradius 112.607
lwrist 21.1151
lhand -28.8171 4.15274
lfingers 7.12502
lthumb -2.17503 34.1214
rfemur 0.871689 1.11058 15.7838
rtibia 31.5972
rfoot -22.3791 -14.6968
rtoes -9.92843
lfemur -8.77438 14.9578 -20.5612
ltibia 33.4553
lfoot -15.1917 21.3935
ltoes -5.97825
